<svg xmlns="http://www.w3.org/2000/svg" fill="none" viewBox="0 0 50 50" id="Hono--Streamline-Svg-Logos" height="50" width="50">
  <desc>
    Hono Streamline Icon: https://streamlinehq.com
  </desc>
  <path fill="#ff5b11" d="M25.909375000000004 0.5250677083333334c0.12994791666666666 -0.016711458333333335 0.2446875 0.016057291666666668 0.3440625 0.09830729166666667 3.6564062500000003 4.462552083333334 7.0971875 9.08303125 10.32234375 13.861416666666667 2.3878125000000003 3.5950520833333335 4.419427083333334 7.396197916666667 6.095104166666667 11.40375 2.676041666666667 7.137552083333334 1.2833333333333334 13.347395833333334 -4.178072916666667 18.629375 -4.77859375 4.038697916666667 -10.283802083333335 5.611614583333334 -16.51578125 4.718802083333334 -7.4490625 -1.5188020833333336 -12.511979166666668 -5.827916666666668 -15.18859375 -12.927552083333335 -0.6971875000000001 -2.3113020833333335 -0.9265625000000001 -4.670677083333334 -0.688125 -7.078177083333333 0.3969791666666667 -4.143958333333334 1.3800520833333336 -8.141875 2.94921875 -11.993541666666667 0.6538541666666667 -1.5715625 1.5058854166666669 -3.013333333333333 2.556041666666667 -4.325572916666666 0.8567187500000001 1.0204166666666667 1.6759375 2.0691145833333335 2.4576562500000003 3.1458854166666668 0.3619791666666667 0.3783854166666667 0.7388020833333334 0.7388541666666668 1.1305729166666667 1.0813541666666668C18.184010416666666 11.204843750000002 21.7559375 5.666875 25.909375000000004 0.5250677083333334Z" opacity=".993" stroke-width="0.5208"></path>
  <path fill="#ff9758" d="M25.221354166666668 8.488020833333334c3.6071875 4.184010416666667 6.867760416666667 8.640625 9.781614583333333 13.369895833333334 0.9135937500000001 1.5648958333333334 1.6672395833333333 3.203385416666667 2.2610937500000006 4.915416666666667 1.2371354166666668 4.86703125 -0.09005208333333334 8.881354166666666 -3.9814583333333338 12.042708333333334 -3.763645833333334 2.648333333333334 -7.892552083333334 3.434791666666667 -12.386822916666667 2.3594270833333337 -4.846510416666668 -1.5039062500000002 -7.64828125 -4.76453125 -8.405364583333334 -9.781666666666666 -0.18369791666666668 -1.5818750000000001 -0.019843750000000004 -3.1220833333333333 0.4915625 -4.620468750000001 0.7292708333333333 -1.8518229166666667 1.6140104166666667 -3.621354166666667 2.654322916666667 -5.308645833333334 0.9830729166666667 -1.4418750000000002 1.9661458333333335 -2.8836458333333335 2.94921875 -4.325520833333334 2.2331770833333335 -2.8716145833333333 4.445104166666667 -5.755260416666667 6.635833333333334 -8.651145833333333Z" stroke-width="0.5208"></path>
</svg>